<?xml version="1.0" encoding="UTF-8"?>
<svg xmlns="http://www.w3.org/2000/svg" xmlns:xlink="http://www.w3.org/1999/xlink" width="164.409439" height="164.409439" viewBox="0 0 164.409439 164.409439">
<defs>
<clipPath id="clip-0">
<path clip-rule="nonzero" d="M 14.144531 22.230469 L 132.234375 22.230469 L 132.234375 26.597656 L 14.144531 26.597656 Z M 14.144531 26.597656 L 150.351562 26.597656 L 150.351562 93.410156 L 14.144531 93.410156 Z M 14.144531 26.597656 "/>
</clipPath>
<linearGradient id="linear-pattern-0" gradientUnits="userSpaceOnUse" x1="294.680588" y1="200.275162" x2="322.810882" y2="200.275162" gradientTransform="matrix(4.842004, 0, 0, 4.842004, -1412.699584, -911.827363)">
<stop offset="0" stop-color="rgb(0.784302%, 19.60907%, 54.51355%)" stop-opacity="1"/>
<stop offset="0.03125" stop-color="rgb(0.794983%, 19.656372%, 54.620361%)" stop-opacity="1"/>
<stop offset="0.0625" stop-color="rgb(0.819397%, 19.752502%, 54.83551%)" stop-opacity="1"/>
<stop offset="0.09375" stop-color="rgb(0.843811%, 19.847107%, 55.050659%)" stop-opacity="1"/>
<stop offset="0.125" stop-color="rgb(0.868225%, 19.943237%, 55.265808%)" stop-opacity="1"/>
<stop offset="0.15625" stop-color="rgb(0.891113%, 20.039368%, 55.482483%)" stop-opacity="1"/>
<stop offset="0.1875" stop-color="rgb(0.915527%, 20.135498%, 55.697632%)" stop-opacity="1"/>
<stop offset="0.21875" stop-color="rgb(0.939941%, 20.230103%, 55.912781%)" stop-opacity="1"/>
<stop offset="0.25" stop-color="rgb(0.96283%, 20.326233%, 56.12793%)" stop-opacity="1"/>
<stop offset="0.28125" stop-color="rgb(0.987244%, 20.422363%, 56.343079%)" stop-opacity="1"/>
<stop offset="0.3125" stop-color="rgb(1.011658%, 20.518494%, 56.558228%)" stop-opacity="1"/>
<stop offset="0.34375" stop-color="rgb(1.034546%, 20.613098%, 56.774902%)" stop-opacity="1"/>
<stop offset="0.375" stop-color="rgb(1.05896%, 20.709229%, 56.990051%)" stop-opacity="1"/>
<stop offset="0.40625" stop-color="rgb(1.083374%, 20.805359%, 57.2052%)" stop-opacity="1"/>
<stop offset="0.4375" stop-color="rgb(1.106262%, 20.901489%, 57.420349%)" stop-opacity="1"/>
<stop offset="0.46875" stop-color="rgb(1.130676%, 20.996094%, 57.635498%)" stop-opacity="1"/>
<stop offset="0.5" stop-color="rgb(1.15509%, 21.092224%, 57.852173%)" stop-opacity="1"/>
<stop offset="0.515625" stop-color="rgb(1.18866%, 21.160889%, 58.041382%)" stop-opacity="1"/>
<stop offset="0.53125" stop-color="rgb(1.274109%, 21.194458%, 58.276367%)" stop-opacity="1"/>
<stop offset="0.546875" stop-color="rgb(1.403809%, 21.220398%, 58.587646%)" stop-opacity="1"/>
<stop offset="0.5625" stop-color="rgb(1.533508%, 21.246338%, 58.8974%)" stop-opacity="1"/>
<stop offset="0.578125" stop-color="rgb(1.661682%, 21.272278%, 59.207153%)" stop-opacity="1"/>
<stop offset="0.59375" stop-color="rgb(1.791382%, 21.298218%, 59.516907%)" stop-opacity="1"/>
<stop offset="0.609375" stop-color="rgb(1.921082%, 21.324158%, 59.828186%)" stop-opacity="1"/>
<stop offset="0.625" stop-color="rgb(2.050781%, 21.350098%, 60.137939%)" stop-opacity="1"/>
<stop offset="0.640625" stop-color="rgb(2.178955%, 21.376038%, 60.447693%)" stop-opacity="1"/>
<stop offset="0.65625" stop-color="rgb(2.308655%, 21.401978%, 60.757446%)" stop-opacity="1"/>
<stop offset="0.671875" stop-color="rgb(2.438354%, 21.427917%, 61.068726%)" stop-opacity="1"/>
<stop offset="0.6875" stop-color="rgb(2.566528%, 21.453857%, 61.378479%)" stop-opacity="1"/>
<stop offset="0.703125" stop-color="rgb(2.696228%, 21.479797%, 61.688232%)" stop-opacity="1"/>
<stop offset="0.71875" stop-color="rgb(2.825928%, 21.505737%, 61.997986%)" stop-opacity="1"/>
<stop offset="0.734375" stop-color="rgb(2.954102%, 21.530151%, 62.309265%)" stop-opacity="1"/>
<stop offset="0.75" stop-color="rgb(3.08075%, 21.559143%, 62.614441%)" stop-opacity="1"/>
<stop offset="0.78125" stop-color="rgb(3.216553%, 21.647644%, 62.95929%)" stop-opacity="1"/>
<stop offset="0.796875" stop-color="rgb(3.327942%, 21.759033%, 63.252258%)" stop-opacity="1"/>
<stop offset="0.8125" stop-color="rgb(3.401184%, 21.832275%, 63.449097%)" stop-opacity="1"/>
<stop offset="0.828125" stop-color="rgb(3.474426%, 21.905518%, 63.644409%)" stop-opacity="1"/>
<stop offset="0.84375" stop-color="rgb(3.547668%, 21.97876%, 63.841248%)" stop-opacity="1"/>
<stop offset="0.859375" stop-color="rgb(3.620911%, 22.052002%, 64.03656%)" stop-opacity="1"/>
<stop offset="0.875" stop-color="rgb(3.694153%, 22.125244%, 64.231873%)" stop-opacity="1"/>
<stop offset="0.90625" stop-color="rgb(3.804016%, 22.236633%, 64.526367%)" stop-opacity="1"/>
<stop offset="0.921875" stop-color="rgb(3.915405%, 22.346497%, 64.819336%)" stop-opacity="1"/>
<stop offset="0.9375" stop-color="rgb(3.988647%, 22.419739%, 65.016174%)" stop-opacity="1"/>
<stop offset="0.953125" stop-color="rgb(4.06189%, 22.492981%, 65.211487%)" stop-opacity="1"/>
<stop offset="0.96875" stop-color="rgb(4.135132%, 22.566223%, 65.408325%)" stop-opacity="1"/>
<stop offset="1" stop-color="rgb(4.241943%, 22.673035%, 65.693665%)" stop-opacity="1"/>
</linearGradient>
</defs>
<path fill-rule="nonzero" fill="rgb(54.508972%, 0%, 43.136597%)" fill-opacity="1" d="M 0 0 L 164.410156 0 L 164.410156 164.410156 L 0 164.410156 Z M 0 0 "/>
<g clip-path="url(#clip-0)">
<path fill-rule="nonzero" fill="url(#linear-pattern-0)" d="M 14.144531 22.230469 L 14.144531 93.410156 L 150.351562 93.410156 L 150.351562 22.230469 Z M 14.144531 22.230469 "/>
</g>
<path fill-rule="nonzero" fill="rgb(100%, 100%, 100%)" fill-opacity="1" d="M 29.390625 60.070312 C 25.722656 60.070312 22.980469 59.304688 21.164062 57.777344 C 19.390625 56.230469 18.503906 53.894531 18.503906 50.769531 L 18.503906 37.738281 C 18.503906 34.945312 19.546875 32.832031 21.636719 31.398438 C 23.730469 29.96875 26.847656 29.25 30.988281 29.25 C 34.34375 29.25 36.945312 29.648438 38.800781 30.449219 C 40.65625 31.246094 41.9375 32.410156 42.648438 33.933594 C 43.355469 35.460938 43.710938 37.421875 43.710938 39.816406 L 33.769531 39.816406 L 33.769531 37.105469 C 33.769531 36.375 33.59375 35.8125 33.238281 35.414062 C 32.921875 35.015625 32.328125 34.816406 31.460938 34.816406 C 29.527344 34.816406 28.5625 35.566406 28.5625 37.070312 L 28.5625 51.722656 C 28.5625 52.636719 28.757812 53.328125 29.152344 53.800781 C 29.546875 54.269531 30.238281 54.503906 31.226562 54.503906 C 32.210938 54.503906 32.902344 54.269531 33.296875 53.800781 C 33.691406 53.328125 33.886719 52.636719 33.886719 51.722656 L 33.886719 47.390625 L 31.167969 47.390625 L 31.167969 42.175781 L 43.59375 42.175781 L 43.59375 59.785156 L 39.511719 59.785156 L 37.792969 57.25 C 35.980469 59.128906 33.179688 60.070312 29.390625 60.070312 Z M 29.390625 60.070312 "/>
<path fill-rule="nonzero" fill="rgb(100%, 100%, 100%)" fill-opacity="1" d="M 59.394531 60.070312 C 55.210938 60.070312 52.09375 59.363281 50.042969 57.957031 C 48.03125 56.546875 47.027344 54.457031 47.027344 51.6875 L 47.027344 29.53125 L 56.910156 29.53125 L 56.910156 51.441406 C 56.910156 52.402344 57.066406 53.152344 57.382812 53.695312 C 57.699219 54.234375 58.367188 54.503906 59.394531 54.503906 C 60.417969 54.503906 61.089844 54.246094 61.40625 53.730469 C 61.722656 53.1875 61.878906 52.425781 61.878906 51.441406 L 61.878906 29.53125 L 71.761719 29.53125 L 71.761719 51.6875 C 71.761719 54.457031 70.734375 56.546875 68.683594 57.957031 C 66.671875 59.363281 63.574219 60.070312 59.394531 60.070312 Z M 59.394531 60.070312 "/>
<path fill-rule="nonzero" fill="rgb(100%, 100%, 100%)" fill-opacity="1" d="M 80.046875 59.785156 L 80.046875 35.34375 L 74.011719 35.34375 L 74.011719 29.53125 L 96.261719 29.53125 L 96.261719 35.34375 L 90.226562 35.34375 L 90.226562 59.785156 Z M 80.046875 59.785156 "/>
<path fill-rule="nonzero" fill="rgb(100%, 100%, 100%)" fill-opacity="1" d="M 99.101562 59.785156 L 99.101562 29.53125 L 119.460938 29.53125 L 119.460938 35.378906 L 109.457031 35.378906 L 109.457031 41.261719 L 119.046875 41.261719 L 119.046875 46.964844 L 109.457031 46.964844 L 109.457031 53.90625 L 120.109375 53.90625 L 120.109375 59.785156 Z M 99.101562 59.785156 "/>
<path fill-rule="nonzero" fill="rgb(100%, 100%, 100%)" fill-opacity="1" d="M 135.554688 60.070312 C 130.941406 60.070312 127.605469 59.386719 125.554688 58.027344 C 123.503906 56.664062 122.476562 54.46875 122.476562 51.441406 L 122.476562 48.480469 L 132.480469 48.480469 L 132.480469 52.25 C 132.480469 53.753906 133.289062 54.503906 134.90625 54.503906 C 135.8125 54.503906 136.445312 54.351562 136.796875 54.046875 C 137.152344 53.71875 137.332031 53.175781 137.332031 52.425781 C 137.332031 51.441406 137.132812 50.628906 136.738281 49.996094 C 136.34375 49.339844 135.832031 48.796875 135.199219 48.375 C 134.609375 47.929688 133.523438 47.25 131.945312 46.332031 L 127.566406 43.726562 C 124.175781 41.753906 122.476562 39.570312 122.476562 37.175781 C 122.476562 34.59375 123.464844 32.632812 125.4375 31.292969 C 127.449219 29.929688 130.367188 29.25 134.195312 29.25 C 138.769531 29.25 142.066406 29.980469 144.078125 31.433594 C 146.089844 32.867188 147.097656 35.121094 147.097656 38.195312 L 136.738281 38.195312 L 136.683594 36.117188 C 136.683594 35.71875 136.484375 35.402344 136.089844 35.167969 C 135.734375 34.933594 135.222656 34.816406 134.550781 34.816406 C 133.761719 34.816406 133.171875 34.945312 132.777344 35.203125 C 132.382812 35.460938 132.183594 35.8125 132.183594 36.257812 C 132.183594 37.246094 133.132812 38.265625 135.027344 39.324219 L 140.945312 42.703125 C 142.324219 43.503906 143.46875 44.265625 144.375 44.992188 C 145.285156 45.699219 146.011719 46.542969 146.566406 47.53125 C 147.117188 48.492188 147.394531 49.644531 147.394531 50.980469 C 147.394531 53.964844 146.46875 56.230469 144.613281 57.777344 C 142.796875 59.304688 139.78125 60.070312 135.558594 60.070312 Z M 135.554688 60.070312 "/>
<path fill-rule="nonzero" fill="rgb(100%, 100%, 100%)" fill-opacity="1" d="M 24.519531 110.476562 C 22.257812 110.476562 20.625 110.179688 19.617188 109.589844 C 18.613281 108.996094 18.109375 108.039062 18.109375 106.722656 L 18.109375 105.433594 L 23.011719 105.433594 L 23.011719 107.074219 C 23.011719 107.730469 23.40625 108.054688 24.199219 108.054688 C 24.644531 108.054688 24.953125 107.988281 25.128906 107.855469 C 25.300781 107.714844 25.390625 107.476562 25.390625 107.152344 C 25.390625 106.722656 25.292969 106.371094 25.101562 106.09375 C 24.90625 105.808594 24.65625 105.574219 24.347656 105.390625 C 24.054688 105.195312 23.523438 104.898438 22.75 104.5 L 20.605469 103.367188 C 18.941406 102.507812 18.109375 101.558594 18.109375 100.515625 C 18.109375 99.390625 18.59375 98.539062 19.5625 97.957031 C 20.546875 97.363281 21.976562 97.066406 23.851562 97.066406 C 26.09375 97.066406 27.710938 97.382812 28.695312 98.015625 C 29.683594 98.640625 30.175781 99.621094 30.175781 100.960938 L 25.101562 100.960938 L 25.074219 100.054688 C 25.074219 99.882812 24.976562 99.742188 24.785156 99.640625 C 24.609375 99.539062 24.359375 99.488281 24.027344 99.488281 C 23.640625 99.488281 23.351562 99.542969 23.160156 99.65625 C 22.964844 99.769531 22.871094 99.921875 22.871094 100.117188 C 22.871094 100.546875 23.332031 100.992188 24.261719 101.449219 L 27.160156 102.921875 C 27.839844 103.269531 28.398438 103.601562 28.84375 103.917969 C 29.289062 104.222656 29.644531 104.59375 29.917969 105.019531 C 30.1875 105.441406 30.324219 105.941406 30.324219 106.523438 C 30.324219 107.820312 29.867188 108.808594 28.960938 109.480469 C 28.070312 110.144531 26.589844 110.476562 24.523438 110.476562 Z M 24.519531 110.476562 "/>
<path fill-rule="nonzero" fill="rgb(100%, 100%, 100%)" fill-opacity="1" d="M 37.773438 110.476562 C 35.953125 110.476562 34.496094 110.175781 33.394531 109.574219 C 32.3125 108.96875 31.769531 108.140625 31.769531 107.089844 L 31.769531 101.019531 C 31.769531 99.710938 32.261719 98.726562 33.25 98.0625 C 34.234375 97.398438 35.78125 97.066406 37.886719 97.066406 C 39.726562 97.066406 41.203125 97.332031 42.324219 97.863281 C 43.445312 98.394531 44.007812 99.160156 44.007812 100.164062 L 44.007812 102.429688 L 39.046875 102.429688 L 39.046875 100.484375 C 39.046875 100.105469 38.960938 99.84375 38.789062 99.703125 C 38.613281 99.558594 38.3125 99.488281 37.886719 99.488281 C 37.445312 99.488281 37.132812 99.570312 36.960938 99.734375 C 36.804688 99.898438 36.730469 100.136719 36.730469 100.453125 L 36.730469 107.058594 C 36.730469 107.40625 36.824219 107.660156 37.019531 107.824219 C 37.210938 107.980469 37.5 108.054688 37.886719 108.054688 C 38.660156 108.054688 39.046875 107.722656 39.046875 107.058594 L 39.046875 104.683594 L 44.066406 104.683594 L 44.066406 107.167969 C 44.066406 109.375 41.96875 110.476562 37.773438 110.476562 Z M 37.773438 110.476562 "/>
<path fill-rule="nonzero" fill="rgb(100%, 100%, 100%)" fill-opacity="1" d="M 45.71875 110.355469 L 45.71875 97.1875 L 50.675781 97.1875 L 50.675781 101.894531 L 53.027344 101.894531 L 53.027344 97.1875 L 57.984375 97.1875 L 57.984375 110.355469 L 53.027344 110.355469 L 53.027344 104.378906 L 50.675781 104.378906 L 50.675781 110.355469 Z M 45.71875 110.355469 "/>
<path fill-rule="nonzero" fill="rgb(100%, 100%, 100%)" fill-opacity="1" d="M 60.191406 110.355469 L 60.191406 97.1875 L 65.175781 97.1875 L 65.175781 108.117188 L 70.3125 108.117188 L 70.3125 110.355469 Z M 60.191406 110.355469 "/>
<path fill-rule="nonzero" fill="rgb(100%, 100%, 100%)" fill-opacity="1" d="M 71.703125 110.355469 L 71.703125 97.1875 L 81.679688 97.1875 L 81.679688 99.734375 L 76.777344 99.734375 L 76.777344 102.292969 L 81.476562 102.292969 L 81.476562 104.777344 L 76.777344 104.777344 L 76.777344 107.796875 L 81.996094 107.796875 L 81.996094 110.355469 Z M 71.703125 110.355469 "/>
<path fill-rule="nonzero" fill="rgb(100%, 100%, 100%)" fill-opacity="1" d="M 89.449219 110.476562 C 87.632812 110.476562 86.175781 110.175781 85.070312 109.574219 C 83.988281 108.96875 83.449219 108.140625 83.449219 107.089844 L 83.449219 101.019531 C 83.449219 99.710938 83.941406 98.726562 84.925781 98.0625 C 85.914062 97.398438 87.460938 97.066406 89.566406 97.066406 C 91.402344 97.066406 92.882812 97.332031 94.003906 97.863281 C 95.125 98.394531 95.6875 99.160156 95.6875 100.164062 L 95.6875 102.429688 L 90.726562 102.429688 L 90.726562 100.484375 C 90.726562 100.105469 90.640625 99.84375 90.464844 99.703125 C 90.292969 99.558594 89.992188 99.488281 89.566406 99.488281 C 89.121094 99.488281 88.8125 99.570312 88.640625 99.734375 C 88.484375 99.898438 88.40625 100.136719 88.40625 100.453125 L 88.40625 107.058594 C 88.40625 107.40625 88.503906 107.660156 88.695312 107.824219 C 88.890625 107.980469 89.179688 108.054688 89.566406 108.054688 C 90.339844 108.054688 90.726562 107.722656 90.726562 107.058594 L 90.726562 104.683594 L 95.742188 104.683594 L 95.742188 107.167969 C 95.742188 109.375 93.644531 110.476562 89.449219 110.476562 Z M 89.449219 110.476562 "/>
<path fill-rule="nonzero" fill="rgb(100%, 100%, 100%)" fill-opacity="1" d="M 97.398438 110.355469 L 97.398438 97.1875 L 102.355469 97.1875 L 102.355469 101.894531 L 104.707031 101.894531 L 104.707031 97.1875 L 109.664062 97.1875 L 109.664062 110.355469 L 104.707031 110.355469 L 104.707031 104.378906 L 102.355469 104.378906 L 102.355469 110.355469 Z M 97.398438 110.355469 "/>
<path fill-rule="nonzero" fill="rgb(100%, 100%, 100%)" fill-opacity="1" d="M 114.015625 110.355469 L 114.015625 99.71875 L 111.054688 99.71875 L 111.054688 97.1875 L 121.960938 97.1875 L 121.960938 99.71875 L 119.003906 99.71875 L 119.003906 110.355469 Z M 114.015625 110.355469 "/>
<path fill-rule="nonzero" fill="rgb(100%, 100%, 100%)" fill-opacity="1" d="M 123.351562 110.355469 L 123.351562 97.1875 L 133.328125 97.1875 L 133.328125 99.734375 L 128.425781 99.734375 L 128.425781 102.292969 L 133.125 102.292969 L 133.125 104.777344 L 128.425781 104.777344 L 128.425781 107.796875 L 133.648438 107.796875 L 133.648438 110.355469 Z M 123.351562 110.355469 "/>
<path fill-rule="nonzero" fill="rgb(100%, 100%, 100%)" fill-opacity="1" d="M 141.214844 110.476562 C 138.953125 110.476562 137.320312 110.179688 136.316406 109.589844 C 135.308594 108.996094 134.808594 108.039062 134.808594 106.722656 L 134.808594 105.433594 L 139.707031 105.433594 L 139.707031 107.074219 C 139.707031 107.730469 140.105469 108.054688 140.898438 108.054688 C 141.34375 108.054688 141.652344 107.988281 141.824219 107.855469 C 142 107.714844 142.085938 107.476562 142.085938 107.152344 C 142.085938 106.722656 141.988281 106.371094 141.796875 106.09375 C 141.605469 105.808594 141.351562 105.574219 141.042969 105.390625 C 140.753906 105.195312 140.222656 104.898438 139.449219 104.5 L 137.300781 103.367188 C 135.640625 102.507812 134.808594 101.558594 134.808594 100.515625 C 134.808594 99.390625 135.292969 98.539062 136.257812 97.957031 C 137.242188 97.363281 138.675781 97.066406 140.550781 97.066406 C 142.792969 97.066406 144.40625 97.382812 145.394531 98.015625 C 146.378906 98.640625 146.871094 99.621094 146.871094 100.960938 L 141.796875 100.960938 L 141.769531 100.054688 C 141.769531 99.882812 141.671875 99.742188 141.480469 99.640625 C 141.304688 99.539062 141.054688 99.488281 140.726562 99.488281 C 140.339844 99.488281 140.050781 99.542969 139.855469 99.65625 C 139.664062 99.769531 139.566406 99.921875 139.566406 100.117188 C 139.566406 100.546875 140.03125 100.992188 140.957031 101.449219 L 143.859375 102.921875 C 144.535156 103.269531 145.097656 103.601562 145.539062 103.917969 C 145.984375 104.222656 146.34375 104.59375 146.613281 105.019531 C 146.882812 105.441406 147.019531 105.941406 147.019531 106.523438 C 147.019531 107.820312 146.566406 108.808594 145.65625 109.480469 C 144.769531 110.144531 143.289062 110.476562 141.21875 110.476562 Z M 141.214844 110.476562 "/>
<path fill-rule="nonzero" fill="rgb(100%, 100%, 100%)" fill-opacity="1" d="M 30.378906 87.542969 C 26.777344 87.542969 23.878906 87 21.695312 85.917969 C 19.546875 84.835938 18.472656 83.351562 18.472656 81.460938 L 18.472656 70.5625 C 18.472656 68.214844 19.453125 66.445312 21.40625 65.253906 C 23.363281 64.0625 26.429688 63.464844 30.609375 63.464844 C 34.253906 63.464844 37.1875 63.941406 39.410156 64.894531 C 41.636719 65.851562 42.746094 67.226562 42.746094 69.023438 L 42.746094 73.09375 L 32.910156 73.09375 L 32.910156 69.601562 C 32.910156 68.921875 32.738281 68.453125 32.394531 68.199219 C 32.050781 67.941406 31.453125 67.8125 30.609375 67.8125 C 29.730469 67.8125 29.117188 67.960938 28.769531 68.253906 C 28.464844 68.546875 28.308594 68.976562 28.308594 69.546875 L 28.308594 81.40625 C 28.308594 82.03125 28.503906 82.488281 28.886719 82.78125 C 29.269531 83.054688 29.84375 83.195312 30.613281 83.195312 C 32.144531 83.195312 32.914062 82.597656 32.914062 81.40625 L 32.914062 77.140625 L 42.863281 77.140625 L 42.863281 81.597656 C 42.863281 85.5625 38.703125 87.542969 30.382812 87.542969 Z M 30.378906 87.542969 "/>
<path fill-rule="nonzero" fill="rgb(100%, 100%, 100%)" fill-opacity="1" d="M 52.125 87.320312 L 52.125 79.535156 L 44.242188 63.683594 L 54.023438 63.683594 L 56.78125 71.691406 L 59.542969 63.683594 L 69.324219 63.683594 L 61.441406 79.535156 L 61.441406 87.320312 Z M 52.125 87.320312 "/>
<path fill-rule="nonzero" fill="rgb(100%, 100%, 100%)" fill-opacity="1" d="M 71.796875 63.683594 L 85.199219 63.683594 C 88.804688 63.683594 91.410156 64.105469 93.023438 64.949219 C 94.671875 65.792969 95.496094 67.171875 95.496094 69.078125 L 95.496094 70.125 C 95.496094 72.378906 93.808594 73.730469 90.433594 74.167969 C 92.503906 74.425781 93.960938 75.023438 94.804688 75.957031 C 95.648438 76.894531 96.070312 78.132812 96.070312 79.671875 C 96.070312 82.183594 95.285156 84.09375 93.710938 85.394531 C 92.140625 86.679688 89.300781 87.320312 85.199219 87.320312 L 71.796875 87.320312 Z M 83.472656 72.574219 C 84.316406 72.574219 84.890625 72.425781 85.199219 72.132812 C 85.503906 71.820312 85.660156 71.390625 85.660156 70.839844 L 85.660156 68.472656 C 85.660156 67.703125 84.949219 67.316406 83.53125 67.316406 L 81.460938 67.316406 L 81.460938 72.574219 Z M 82.4375 83.167969 C 85.007812 83.167969 86.292969 82.578125 86.292969 81.40625 L 86.292969 78.460938 C 86.292969 77.746094 86.0625 77.203125 85.601562 76.839844 C 85.179688 76.472656 84.414062 76.289062 83.300781 76.289062 L 81.460938 76.289062 L 81.460938 83.140625 Z M 82.4375 83.167969 "/>
<path fill-rule="nonzero" fill="rgb(100%, 100%, 100%)" fill-opacity="1" d="M 99.347656 87.320312 L 99.347656 63.683594 L 119.136719 63.683594 L 119.136719 68.253906 L 109.414062 68.253906 L 109.414062 72.847656 L 118.734375 72.847656 L 118.734375 77.304688 L 109.414062 77.304688 L 109.414062 82.726562 L 119.769531 82.726562 L 119.769531 87.320312 Z M 99.347656 87.320312 "/>
<path fill-rule="nonzero" fill="rgb(100%, 100%, 100%)" fill-opacity="1" d="M 123.046875 63.683594 L 138.234375 63.683594 C 140.648438 63.683594 142.507812 63.949219 143.8125 64.484375 C 145.15625 64.996094 146.054688 65.730469 146.515625 66.683594 C 146.976562 67.621094 147.207031 68.820312 147.207031 70.289062 C 147.207031 71.628906 146.84375 72.671875 146.113281 73.425781 C 145.386719 74.179688 144.121094 74.699219 142.316406 74.996094 C 143.8125 75.140625 144.886719 75.5 145.539062 76.066406 C 146.230469 76.636719 146.574219 77.40625 146.574219 78.378906 L 146.460938 87.320312 L 136.796875 87.320312 L 136.796875 78.074219 C 136.796875 77.414062 136.527344 76.992188 135.992188 76.808594 C 135.453125 76.625 134.476562 76.535156 133.058594 76.535156 L 133.058594 87.320312 L 123.046875 87.320312 Z M 135.472656 72.433594 C 136.851562 72.433594 137.542969 71.71875 137.542969 70.289062 C 137.542969 69.664062 137.484375 69.199219 137.371094 68.886719 C 137.257812 68.574219 137.046875 68.363281 136.738281 68.253906 C 136.433594 68.125 135.992188 68.058594 135.414062 68.058594 L 133.113281 68.058594 L 133.113281 72.433594 Z M 135.472656 72.433594 "/>
<path fill-rule="nonzero" fill="rgb(100%, 100%, 100%)" fill-opacity="1" d="M 30.414062 139.304688 C 26.808594 139.304688 23.914062 138.742188 21.730469 137.625 C 19.582031 136.503906 18.507812 134.96875 18.507812 133.015625 L 18.507812 121.746094 C 18.507812 119.316406 19.488281 117.488281 21.441406 116.253906 C 23.398438 115.019531 26.464844 114.40625 30.644531 114.40625 C 34.285156 114.40625 37.21875 114.898438 39.441406 115.882812 C 41.664062 116.871094 42.777344 118.292969 42.777344 120.152344 L 42.777344 124.363281 L 32.941406 124.363281 L 32.941406 120.75 C 32.941406 120.046875 32.769531 119.566406 32.425781 119.300781 C 32.082031 119.035156 31.484375 118.902344 30.644531 118.902344 C 29.761719 118.902344 29.148438 119.050781 28.800781 119.355469 C 28.496094 119.660156 28.34375 120.105469 28.34375 120.695312 L 28.34375 132.957031 C 28.34375 133.601562 28.535156 134.078125 28.917969 134.378906 C 29.300781 134.664062 29.875 134.808594 30.644531 134.808594 C 32.175781 134.808594 32.945312 134.191406 32.945312 132.957031 L 32.945312 128.546875 L 42.890625 128.546875 L 42.890625 133.15625 C 42.890625 137.253906 38.734375 139.304688 30.414062 139.304688 Z M 30.414062 139.304688 "/>
<path fill-rule="nonzero" fill="rgb(100%, 100%, 100%)" fill-opacity="1" d="M 52.148438 139.074219 L 52.148438 131.023438 L 44.273438 114.632812 L 54.046875 114.632812 L 56.808594 122.914062 L 59.570312 114.632812 L 69.34375 114.632812 L 61.464844 131.023438 L 61.464844 139.074219 Z M 52.148438 139.074219 "/>
<path fill-rule="nonzero" fill="rgb(100%, 100%, 100%)" fill-opacity="1" d="M 71.816406 114.632812 L 85.214844 114.632812 C 88.820312 114.632812 91.425781 115.070312 93.039062 115.941406 C 94.6875 116.8125 95.511719 118.238281 95.511719 120.210938 L 95.511719 121.289062 C 95.511719 123.625 93.824219 125.019531 90.449219 125.472656 C 92.519531 125.738281 93.976562 126.355469 94.820312 127.324219 C 95.664062 128.289062 96.085938 129.570312 96.085938 131.164062 C 96.085938 133.765625 95.300781 135.738281 93.726562 137.082031 C 92.15625 138.410156 89.320312 139.074219 85.214844 139.074219 L 71.816406 139.074219 Z M 83.492188 123.824219 C 84.335938 123.824219 84.910156 123.671875 85.214844 123.367188 C 85.523438 123.046875 85.675781 122.601562 85.675781 122.03125 L 85.675781 119.582031 C 85.675781 118.785156 84.96875 118.386719 83.546875 118.386719 L 81.476562 118.386719 L 81.476562 123.824219 Z M 82.457031 134.777344 C 85.023438 134.777344 86.308594 134.171875 86.308594 132.957031 L 86.308594 129.914062 C 86.308594 129.171875 86.078125 128.613281 85.617188 128.234375 C 85.195312 127.855469 84.429688 127.664062 83.320312 127.664062 L 81.480469 127.664062 L 81.480469 134.75 Z M 82.457031 134.777344 "/>
<path fill-rule="nonzero" fill="rgb(100%, 100%, 100%)" fill-opacity="1" d="M 99.363281 139.074219 L 99.363281 114.632812 L 119.144531 114.632812 L 119.144531 119.355469 L 109.425781 119.355469 L 109.425781 124.109375 L 118.742188 124.109375 L 118.742188 128.71875 L 109.425781 128.71875 L 109.425781 134.324219 L 119.777344 134.324219 L 119.777344 139.074219 Z M 99.363281 139.074219 "/>
<path fill-rule="nonzero" fill="rgb(100%, 100%, 100%)" fill-opacity="1" d="M 123.054688 114.632812 L 138.238281 114.632812 C 140.652344 114.632812 142.511719 114.90625 143.816406 115.457031 C 145.15625 115.988281 146.058594 116.746094 146.519531 117.734375 C 146.976562 118.703125 147.207031 119.945312 147.207031 121.460938 C 147.207031 122.847656 146.84375 123.929688 146.117188 124.707031 C 145.386719 125.484375 144.121094 126.023438 142.320312 126.328125 C 143.816406 126.480469 144.890625 126.847656 145.539062 127.4375 C 146.230469 128.023438 146.574219 128.820312 146.574219 129.828125 L 146.460938 139.074219 L 136.800781 139.074219 L 136.800781 129.515625 C 136.800781 128.832031 136.53125 128.394531 135.996094 128.207031 C 135.457031 128.015625 134.480469 127.921875 133.0625 127.921875 L 133.0625 139.074219 L 123.054688 139.074219 Z M 135.476562 123.679688 C 136.855469 123.679688 137.546875 122.941406 137.546875 121.460938 C 137.546875 120.816406 137.488281 120.332031 137.375 120.011719 C 137.257812 119.6875 137.046875 119.46875 136.742188 119.355469 C 136.433594 119.222656 135.996094 119.15625 135.417969 119.15625 L 133.117188 119.15625 L 133.117188 123.679688 Z M 135.476562 123.679688 "/>
</svg>
